<svg width="1440" height="800" viewBox="0 0 1440 800" fill="none" xmlns="http://www.w3.org/2000/svg">
<path d="M46.2254 580.813L55.2031 589.791C60.2874 594.875 60.2874 603.119 55.2031 608.203C50.1189 613.287 41.8751 613.287 36.7909 608.203L27.8131 599.225C22.7289 594.141 22.7289 585.897 27.8131 580.813C32.8974 575.729 41.1411 575.729 46.2254 580.813Z" stroke="#E9E9ED" stroke-width="2" stroke-miterlimit="10"/>
<path d="M78.9506 701.791L216.259 839.792C227.914 851.506 227.914 870.5 216.259 882.214C204.603 893.929 185.705 893.929 174.049 882.214L36.7415 744.213C25.0862 732.499 25.0862 713.505 36.7415 701.791C48.3969 690.07 67.2953 690.07 78.9506 701.791Z" fill="#FFCB00"/>
<path d="M128.777 293.82L149.288 314.588C160.904 326.349 160.904 345.418 149.288 357.179C137.673 368.94 118.838 368.94 107.223 357.179L86.7118 336.412C75.0961 324.651 75.0961 305.581 86.7118 293.82C98.3275 282.06 117.162 282.06 128.777 293.82Z" stroke="url(#paint0_linear)" stroke-width="2" stroke-miterlimit="10"/>
<path d="M1381.87 560.341L1431.89 606.935C1441.77 616.147 1442.38 631.683 1433.24 641.635C1424.09 651.587 1408.67 652.187 1398.78 642.976L1348.77 596.381C1338.88 587.17 1338.27 571.633 1347.42 561.681C1356.56 551.723 1371.99 551.123 1381.87 560.341Z" fill="url(#paint1_linear)"/>
<path d="M4.30257 228.042L-31.0423 192.697C-37.6526 186.087 -37.6526 175.368 -31.0423 168.757L-30.2425 167.958C-23.6323 161.347 -12.9128 161.347 -6.30259 167.958L29.0423 203.302C35.6526 209.913 35.6526 220.632 29.0423 227.242L28.2425 228.042C21.6322 234.652 10.9128 234.652 4.30257 228.042Z" fill="url(#paint2_linear)"/>
<path d="M33.2818 129.867L-198.867 -102.282C-215.044 -118.459 -215.044 -144.69 -198.867 -160.867C-182.69 -177.044 -156.459 -177.044 -140.282 -160.867L91.8671 71.2817C108.044 87.4589 108.044 113.69 91.8671 129.867C75.69 146.044 49.4589 146.044 33.2818 129.867Z" fill="#00E0E4"/>
<path d="M1370.05 649.763L1554.24 821.923C1565.92 833.607 1565.92 852.552 1554.24 864.237C1542.56 875.921 1523.63 875.921 1511.95 864.237L1327.76 692.077C1316.08 680.393 1316.08 661.447 1327.76 649.763C1339.44 638.079 1358.37 638.079 1370.05 649.763Z" fill="#C9EAF1"/>
<path d="M1226 622.5C1226 638.795 1212.56 652 1196 652C1179.43 652 1166 638.788 1166 622.5C1166 606.205 1179.44 593 1196 593C1212.57 593 1226 606.205 1226 622.5Z" stroke="#FFCB00" stroke-width="2" stroke-miterlimit="10"/>
<path d="M1330.59 112.968L1428.97 14.5882C1448.42 -4.86329 1479.96 -4.86329 1499.41 14.5882C1518.86 34.0397 1518.86 65.5794 1499.41 85.0309L1401.03 183.411C1381.58 202.862 1350.04 202.862 1330.59 183.411C1311.14 163.959 1311.14 132.42 1330.59 112.968Z" stroke="url(#paint3_linear)" stroke-width="2" stroke-miterlimit="10"/>
<defs>
<linearGradient id="paint0_linear" x1="118" y1="285" x2="118" y2="366" gradientUnits="userSpaceOnUse">
<stop stop-color="#FF5F4A"/>
<stop offset="1" stop-color="#FFCB00"/>
</linearGradient>
<linearGradient id="paint1_linear" x1="1388.43" y1="552.884" x2="1392.22" y2="650.428" gradientUnits="userSpaceOnUse">
<stop stop-color="#7A4BFF"/>
<stop offset="1" stop-color="#00E0E4"/>
</linearGradient>
<linearGradient id="paint2_linear" x1="-1" y1="233" x2="-1" y2="163" gradientUnits="userSpaceOnUse">
<stop stop-color="#7A4BFF"/>
<stop offset="1" stop-color="#00E0E4"/>
</linearGradient>
<linearGradient id="paint3_linear" x1="1415" y1="-0.000414877" x2="1415" y2="198" gradientUnits="userSpaceOnUse">
<stop stop-color="#FF5F4A"/>
<stop offset="1" stop-color="#FFCB00"/>
</linearGradient>
</defs>
</svg>
